{
    "asset" : {
        "generator" : "Khronos glTF Blender I/O v1.8.19",
        "version" : "2.0"
    },
    "extensionsUsed" : [
        "KHR_materials_unlit"
    ],
    "scene" : 0,
    "scenes" : [
        {
            "name" : "Scene",
            "nodes" : [
                0
            ]
        }
    ],
    "nodes" : [
        {
            "mesh" : 0,
            "name" : "3"
        }
    ],
    "materials" : [
        {
            "doubleSided" : true,
            "name" : "Body",
            "pbrMetallicRoughness" : {
                "baseColorFactor" : [
                    1,
                    0.02181212045252323,
                    0.09475795924663544,
                    1
                ],
                "metallicFactor" : 0,
                "roughnessFactor" : 0.5
            }
        },
        {
            "doubleSided" : true,
            "name" : "Lid",
            "pbrMetallicRoughness" : {
                "baseColorFactor" : [
                    0.800000011920929,
                    0.800000011920929,
                    0.800000011920929,
                    1
                ],
                "metallicFactor" : 0,
                "roughnessFactor" : 0.5
            }
        },
        {
            "doubleSided" : true,
            "extensions" : {
                "KHR_materials_unlit" : {}
            },
            "name" : "Logo",
            "pbrMetallicRoughness" : {
                "baseColorTexture" : {
                    "index" : 0
                },
                "metallicFactor" : 0,
                "roughnessFactor" : 0.9
            }
        }
    ],
    "meshes" : [
        {
            "name" : "Cylinder",
            "primitives" : [
                {
                    "attributes" : {
                        "POSITION" : 0,
                        "NORMAL" : 1,
                        "TEXCOORD_0" : 2
                    },
                    "indices" : 3,
                    "material" : 0
                },
                {
                    "attributes" : {
                        "POSITION" : 4,
                        "NORMAL" : 5,
                        "TEXCOORD_0" : 6
                    },
                    "indices" : 7,
                    "material" : 1
                },
                {
                    "attributes" : {
                        "POSITION" : 8,
                        "NORMAL" : 9,
                        "TEXCOORD_0" : 10
                    },
                    "indices" : 11,
                    "material" : 2
                }
            ]
        }
    ],
    "textures" : [
        {
            "sampler" : 0,
            "source" : 0
        }
    ],
    "images" : [
        {
            "bufferView" : 12,
            "mimeType" : "image/jpeg",
            "name" : "costa logo"
        }
    ],
    "accessors" : [
        {
            "bufferView" : 0,
            "componentType" : 5126,
            "count" : 940,
            "max" : [
                0.8674261569976807,
                1.0623703002929688,
                0.8674261569976807
            ],
            "min" : [
                -0.8674261569976807,
                -1.7561249732971191,
                -0.8674261569976807
            ],
            "type" : "VEC3"
        },
        {
            "bufferView" : 1,
            "componentType" : 5126,
            "count" : 940,
            "type" : "VEC3"
        },
        {
            "bufferView" : 2,
            "componentType" : 5126,
            "count" : 940,
            "type" : "VEC2"
        },
        {
            "bufferView" : 3,
            "componentType" : 5123,
            "count" : 1566,
            "type" : "SCALAR"
        },
        {
            "bufferView" : 4,
            "componentType" : 5126,
            "count" : 968,
            "max" : [
                0.9206845760345459,
                1.4476398229599,
                0.9206845760345459
            ],
            "min" : [
                -0.9206845760345459,
                1.0512295961380005,
                -0.9206845760345459
            ],
            "type" : "VEC3"
        },
        {
            "bufferView" : 5,
            "componentType" : 5126,
            "count" : 968,
            "type" : "VEC3"
        },
        {
            "bufferView" : 6,
            "componentType" : 5126,
            "count" : 968,
            "type" : "VEC2"
        },
        {
            "bufferView" : 7,
            "componentType" : 5123,
            "count" : 1530,
            "type" : "SCALAR"
        },
        {
            "bufferView" : 8,
            "componentType" : 5126,
            "count" : 40,
            "max" : [
                0.6893974542617798,
                0.511405885219574,
                0.8291312456130981
            ],
            "min" : [
                -0.6893973350524902,
                -0.9187799096107483,
                0.3965894877910614
            ],
            "type" : "VEC3"
        },
        {
            "bufferView" : 9,
            "componentType" : 5126,
            "count" : 40,
            "type" : "VEC3"
        },
        {
            "bufferView" : 10,
            "componentType" : 5126,
            "count" : 40,
            "type" : "VEC2"
        },
        {
            "bufferView" : 11,
            "componentType" : 5123,
            "count" : 60,
            "type" : "SCALAR"
        }
    ],
    "bufferViews" : [
        {
            "buffer" : 0,
            "byteLength" : 11280,
            "byteOffset" : 0
        },
        {
            "buffer" : 0,
            "byteLength" : 11280,
            "byteOffset" : 11280
        },
        {
            "buffer" : 0,
            "byteLength" : 7520,
            "byteOffset" : 22560
        },
        {
            "buffer" : 0,
            "byteLength" : 3132,
            "byteOffset" : 30080
        },
        {
            "buffer" : 0,
            "byteLength" : 11616,
            "byteOffset" : 33212
        },
        {
            "buffer" : 0,
            "byteLength" : 11616,
            "byteOffset" : 44828
        },
        {
            "buffer" : 0,
            "byteLength" : 7744,
            "byteOffset" : 56444
        },
        {
            "buffer" : 0,
            "byteLength" : 3060,
            "byteOffset" : 64188
        },
        {
            "buffer" : 0,
            "byteLength" : 480,
            "byteOffset" : 67248
        },
        {
            "buffer" : 0,
            "byteLength" : 480,
            "byteOffset" : 67728
        },
        {
            "buffer" : 0,
            "byteLength" : 320,
            "byteOffset" : 68208
        },
        {
            "buffer" : 0,
            "byteLength" : 120,
            "byteOffset" : 68528
        },
        {
            "buffer" : 0,
            "byteLength" : 131774,
            "byteOffset" : 68648
        }
    ],
    "samplers" : [
        {
            "magFilter" : 9729,
            "minFilter" : 9987
        }
    ],
    "buffers" : [
        {
            "byteLength" : 200424,
            "uri" : "data:application/octet-stream;base64,"
        }
    ]
}
