{
    "asset" : {
        "generator" : "Khronos glTF Blender I/O v1.8.19",
        "version" : "2.0"
    },
    "scene" : 0,
    "scenes" : [
        {
            "name" : "Scene",
            "nodes" : [
                0
            ]
        }
    ],
    "nodes" : [
        {
            "mesh" : 0,
            "name" : "Cylinder"
        }
    ],
    "materials" : [
        {
            "doubleSided" : true,
            "name" : "Material.002",
            "pbrMetallicRoughness" : {
                "baseColorFactor" : [
                    0.05421902984380722,
                    0.03182390704751015,
                    0.8000000715255737,
                    1
                ],
                "metallicFactor" : 0,
                "roughnessFactor" : 0.7954545021057129
            }
        },
        {
            "doubleSided" : true,
            "name" : "Material.003",
            "pbrMetallicRoughness" : {}
        },
        {
            "doubleSided" : true,
            "name" : "Material.004",
            "pbrMetallicRoughness" : {
                "baseColorTexture" : {
                    "index" : 0
                },
                "metallicFactor" : 0,
                "roughnessFactor" : 0.5
            }
        },
        {
            "doubleSided" : true,
            "name" : "Material.005",
            "pbrMetallicRoughness" : {
                "baseColorFactor" : [
                    0.45641112327575684,
                    0.0802198275923729,
                    0.08865559101104736,
                    1
                ],
                "metallicFactor" : 0,
                "roughnessFactor" : 0.5
            }
        },
        {
            "doubleSided" : true,
            "name" : "Material.006",
            "pbrMetallicRoughness" : {
                "baseColorFactor" : [
                    0.09758733212947845,
                    0.3662526309490204,
                    0.33245155215263367,
                    1
                ],
                "metallicFactor" : 0,
                "roughnessFactor" : 0.5
            }
        }
    ],
    "meshes" : [
        {
            "name" : "Cylinder",
            "primitives" : [
                {
                    "attributes" : {
                        "POSITION" : 0,
                        "NORMAL" : 1,
                        "TEXCOORD_0" : 2
                    },
                    "indices" : 3,
                    "material" : 0
                },
                {
                    "attributes" : {
                        "POSITION" : 4,
                        "NORMAL" : 5,
                        "TEXCOORD_0" : 6
                    },
                    "indices" : 7,
                    "material" : 1
                },
                {
                    "attributes" : {
                        "POSITION" : 8,
                        "NORMAL" : 9,
                        "TEXCOORD_0" : 10
                    },
                    "indices" : 11,
                    "material" : 2
                },
                {
                    "attributes" : {
                        "POSITION" : 12,
                        "NORMAL" : 13,
                        "TEXCOORD_0" : 14
                    },
                    "indices" : 15,
                    "material" : 3
                },
                {
                    "attributes" : {
                        "POSITION" : 16,
                        "NORMAL" : 17,
                        "TEXCOORD_0" : 18
                    },
                    "indices" : 19,
                    "material" : 4
                }
            ]
        }
    ],
    "textures" : [
        {
            "sampler" : 0,
            "source" : 0
        }
    ],
    "images" : [
        {
            "bufferView" : 12,
            "mimeType" : "image/png",
            "name" : "oasis logo"
        }
    ],
    "accessors" : [
        {
            "bufferView" : 0,
            "componentType" : 5126,
            "count" : 1148,
            "max" : [
                0.4645630121231079,
                2.252060890197754,
                0.46456289291381836
            ],
            "min" : [
                -0.4645630121231079,
                1.9366285800933838,
                -0.46456319093704224
            ],
            "type" : "VEC3"
        },
        {
            "bufferView" : 1,
            "componentType" : 5126,
            "count" : 1148,
            "type" : "VEC3"
        },
        {
            "bufferView" : 2,
            "componentType" : 5126,
            "count" : 1148,
            "type" : "VEC2"
        },
        {
            "bufferView" : 3,
            "componentType" : 5123,
            "count" : 1914,
            "type" : "SCALAR"
        },
        {
            "bufferView" : 4,
            "componentType" : 5126,
            "count" : 8308,
            "max" : [
                0.7553275227546692,
                1.9366285800933838,
                0.75546795129776
            ],
            "min" : [
                -0.7553275227546692,
                -2.357255697250366,
                -0.7554681301116943
            ],
            "type" : "VEC3"
        },
        {
            "bufferView" : 5,
            "componentType" : 5126,
            "count" : 8308,
            "type" : "VEC3"
        },
        {
            "bufferView" : 6,
            "componentType" : 5126,
            "count" : 8308,
            "type" : "VEC2"
        },
        {
            "bufferView" : 7,
            "componentType" : 5123,
            "count" : 12666,
            "type" : "SCALAR"
        },
        {
            "bufferView" : 8,
            "componentType" : 5126,
            "count" : 1272,
            "max" : [
                0.7553275227546692,
                0.7910178303718567,
                0.75546795129776
            ],
            "min" : [
                -0.7553275227546692,
                -1.9571751356124878,
                -8.046903303693398e-07
            ],
            "type" : "VEC3"
        },
        {
            "bufferView" : 9,
            "componentType" : 5126,
            "count" : 1272,
            "type" : "VEC3"
        },
        {
            "bufferView" : 10,
            "componentType" : 5126,
            "count" : 1272,
            "type" : "VEC2"
        },
        {
            "bufferView" : 11,
            "componentType" : 5123,
            "count" : 1920,
            "type" : "SCALAR"
        },
        {
            "bufferView" : 13,
            "componentType" : 5126,
            "count" : 256,
            "max" : [
                0.7433611154556274,
                0.7910178303718567,
                -1.3502595663794636e-07
            ],
            "min" : [
                -0.7433609962463379,
                0.6236189603805542,
                -0.7433611154556274
            ],
            "type" : "VEC3"
        },
        {
            "bufferView" : 14,
            "componentType" : 5126,
            "count" : 256,
            "type" : "VEC3"
        },
        {
            "bufferView" : 15,
            "componentType" : 5126,
            "count" : 256,
            "type" : "VEC2"
        },
        {
            "bufferView" : 16,
            "componentType" : 5123,
            "count" : 384,
            "type" : "SCALAR"
        },
        {
            "bufferView" : 17,
            "componentType" : 5126,
            "count" : 1014,
            "max" : [
                0.7553275227546692,
                0.6236189603805542,
                -1.2928832404668356e-07
            ],
            "min" : [
                -0.7553275227546692,
                -1.9571751356124878,
                -0.7554681301116943
            ],
            "type" : "VEC3"
        },
        {
            "bufferView" : 18,
            "componentType" : 5126,
            "count" : 1014,
            "type" : "VEC3"
        },
        {
            "bufferView" : 19,
            "componentType" : 5126,
            "count" : 1014,
            "type" : "VEC2"
        },
        {
            "bufferView" : 20,
            "componentType" : 5123,
            "count" : 1536,
            "type" : "SCALAR"
        }
    ],
    "bufferViews" : [
        {
            "buffer" : 0,
            "byteLength" : 13776,
            "byteOffset" : 0
        },
        {
            "buffer" : 0,
            "byteLength" : 13776,
            "byteOffset" : 13776
        },
        {
            "buffer" : 0,
            "byteLength" : 9184,
            "byteOffset" : 27552
        },
        {
            "buffer" : 0,
            "byteLength" : 3828,
            "byteOffset" : 36736
        },
        {
            "buffer" : 0,
            "byteLength" : 99696,
            "byteOffset" : 40564
        },
        {
            "buffer" : 0,
            "byteLength" : 99696,
            "byteOffset" : 140260
        },
        {
            "buffer" : 0,
            "byteLength" : 66464,
            "byteOffset" : 239956
        },
        {
            "buffer" : 0,
            "byteLength" : 25332,
            "byteOffset" : 306420
        },
        {
            "buffer" : 0,
            "byteLength" : 15264,
            "byteOffset" : 331752
        },
        {
            "buffer" : 0,
            "byteLength" : 15264,
            "byteOffset" : 347016
        },
        {
            "buffer" : 0,
            "byteLength" : 10176,
            "byteOffset" : 362280
        },
        {
            "buffer" : 0,
            "byteLength" : 3840,
            "byteOffset" : 372456
        },
        {
            "buffer" : 0,
            "byteLength" : 263473,
            "byteOffset" : 376296
        },
        {
            "buffer" : 0,
            "byteLength" : 3072,
            "byteOffset" : 639772
        },
        {
            "buffer" : 0,
            "byteLength" : 3072,
            "byteOffset" : 642844
        },
        {
            "buffer" : 0,
            "byteLength" : 2048,
            "byteOffset" : 645916
        },
        {
            "buffer" : 0,
            "byteLength" : 768,
            "byteOffset" : 647964
        },
        {
            "buffer" : 0,
            "byteLength" : 12168,
            "byteOffset" : 648732
        },
        {
            "buffer" : 0,
            "byteLength" : 12168,
            "byteOffset" : 660900
        },
        {
            "buffer" : 0,
            "byteLength" : 8112,
            "byteOffset" : 673068
        },
        {
            "buffer" : 0,
            "byteLength" : 3072,
            "byteOffset" : 681180
        }
    ],
    "samplers" : [
        {
            "magFilter" : 9729,
            "minFilter" : 9987
        }
    ],
    "buffers" : [
        {
            "byteLength" : 684252,
            "uri" : "data:application/octet-stream;base64,"
        }
    ]
}
