{
    "asset" : {
        "generator" : "Khronos glTF Blender I/O v1.8.19",
        "version" : "2.0"
    },
    "scene" : 0,
    "scenes" : [
        {
            "name" : "Scene",
            "nodes" : [
                0
            ]
        }
    ],
    "nodes" : [
        {
            "mesh" : 0,
            "name" : "Cylinder",
            "scale" : [
                1,
                1.5995739698410034,
                1
            ],
            "translation" : [
                0,
                0.6030562520027161,
                0
            ]
        }
    ],
    "materials" : [
        {
            "doubleSided" : true,
            "name" : "metal",
            "pbrMetallicRoughness" : {
                "baseColorFactor" : [
                    0.5070686936378479,
                    0.5070686936378479,
                    0.5070686936378479,
                    1
                ],
                "metallicFactor" : 0.9333333373069763,
                "roughnessFactor" : 0.5
            }
        },
        {
            "doubleSided" : true,
            "name" : "sprite 2",
            "pbrMetallicRoughness" : {
                "baseColorTexture" : {
                    "index" : 0
                },
                "metallicFactor" : 0,
                "roughnessFactor" : 0.5
            }
        },
        {
            "doubleSided" : true,
            "name" : "green",
            "pbrMetallicRoughness" : {
                "baseColorFactor" : [
                    0.0277254618704319,
                    0.27383145689964294,
                    0.09304854273796082,
                    1
                ],
                "metallicFactor" : 0,
                "roughnessFactor" : 0.5
            }
        },
        {
            "doubleSided" : true,
            "name" : "blue",
            "pbrMetallicRoughness" : {
                "baseColorFactor" : [
                    0.016807377338409424,
                    0.09530746936798096,
                    0.1946178376674652,
                    1
                ],
                "metallicFactor" : 0,
                "roughnessFactor" : 0.5
            }
        },
        {
            "doubleSided" : true,
            "name" : "green 2",
            "pbrMetallicRoughness" : {
                "baseColorFactor" : [
                    0.02624122053384781,
                    0.21223078668117523,
                    0.16513220965862274,
                    1
                ],
                "metallicFactor" : 0,
                "roughnessFactor" : 0.5
            }
        },
        {
            "doubleSided" : true,
            "name" : "green 3",
            "pbrMetallicRoughness" : {
                "baseColorFactor" : [
                    0.033104777336120605,
                    0.24620138108730316,
                    0.1384316384792328,
                    1
                ],
                "metallicFactor" : 0,
                "roughnessFactor" : 0.5
            }
        },
        {
            "doubleSided" : true,
            "name" : "blue 2",
            "pbrMetallicRoughness" : {
                "baseColorFactor" : [
                    0.020288560539484024,
                    0.07818741351366043,
                    0.20863690972328186,
                    1
                ],
                "metallicFactor" : 0,
                "roughnessFactor" : 0.5
            }
        },
        {
            "doubleSided" : true,
            "name" : "metal 2",
            "pbrMetallicRoughness" : {
                "baseColorFactor" : [
                    0.4178338050842285,
                    0.45369797945022583,
                    0.5173337459564209,
                    1
                ],
                "metallicFactor" : 0.8250000476837158,
                "roughnessFactor" : 0.5
            }
        }
    ],
    "meshes" : [
        {
            "name" : "Cylinder",
            "primitives" : [
                {
                    "attributes" : {
                        "POSITION" : 0,
                        "NORMAL" : 1,
                        "TEXCOORD_0" : 2
                    },
                    "indices" : 3,
                    "material" : 0
                },
                {
                    "attributes" : {
                        "POSITION" : 4,
                        "NORMAL" : 5,
                        "TEXCOORD_0" : 6
                    },
                    "indices" : 7,
                    "material" : 1
                },
                {
                    "attributes" : {
                        "POSITION" : 8,
                        "NORMAL" : 9,
                        "TEXCOORD_0" : 10
                    },
                    "indices" : 11,
                    "material" : 2
                },
                {
                    "attributes" : {
                        "POSITION" : 12,
                        "NORMAL" : 13,
                        "TEXCOORD_0" : 14
                    },
                    "indices" : 15,
                    "material" : 3
                },
                {
                    "attributes" : {
                        "POSITION" : 16,
                        "NORMAL" : 17,
                        "TEXCOORD_0" : 18
                    },
                    "indices" : 19,
                    "material" : 4
                },
                {
                    "attributes" : {
                        "POSITION" : 20,
                        "NORMAL" : 21,
                        "TEXCOORD_0" : 22
                    },
                    "indices" : 23,
                    "material" : 5
                },
                {
                    "attributes" : {
                        "POSITION" : 24,
                        "NORMAL" : 25,
                        "TEXCOORD_0" : 26
                    },
                    "indices" : 27,
                    "material" : 6
                },
                {
                    "attributes" : {
                        "POSITION" : 28,
                        "NORMAL" : 29,
                        "TEXCOORD_0" : 30
                    },
                    "indices" : 31,
                    "material" : 7
                }
            ]
        }
    ],
    "textures" : [
        {
            "sampler" : 0,
            "source" : 0
        }
    ],
    "images" : [
        {
            "bufferView" : 8,
            "mimeType" : "image/png",
            "name" : "sprite-logo-0FD1748C65-seeklogo.com"
        }
    ],
    "accessors" : [
        {
            "bufferView" : 0,
            "componentType" : 5126,
            "count" : 5982,
            "max" : [
                1,
                1.0000004768371582,
                1
            ],
            "min" : [
                -1,
                -1.0000003576278687,
                -1
            ],
            "type" : "VEC3"
        },
        {
            "bufferView" : 1,
            "componentType" : 5126,
            "count" : 5982,
            "type" : "VEC3"
        },
        {
            "bufferView" : 2,
            "componentType" : 5126,
            "count" : 5982,
            "type" : "VEC2"
        },
        {
            "bufferView" : 3,
            "componentType" : 5123,
            "count" : 9810,
            "type" : "SCALAR"
        },
        {
            "bufferView" : 4,
            "componentType" : 5126,
            "count" : 885,
            "max" : [
                0.8314696550369263,
                0.75,
                1
            ],
            "min" : [
                -0.8003793358802795,
                -0.8571428656578064,
                0.5555701851844788
            ],
            "type" : "VEC3"
        },
        {
            "bufferView" : 5,
            "componentType" : 5126,
            "count" : 885,
            "type" : "VEC3"
        },
        {
            "bufferView" : 6,
            "componentType" : 5126,
            "count" : 885,
            "type" : "VEC2"
        },
        {
            "bufferView" : 7,
            "componentType" : 5123,
            "count" : 1638,
            "type" : "SCALAR"
        },
        {
            "bufferView" : 9,
            "componentType" : 5126,
            "count" : 811,
            "max" : [
                1,
                0,
                0.5934538245201111
            ],
            "min" : [
                -1,
                -0.8571428656578064,
                -1
            ],
            "type" : "VEC3"
        },
        {
            "bufferView" : 10,
            "componentType" : 5126,
            "count" : 811,
            "type" : "VEC3"
        },
        {
            "bufferView" : 11,
            "componentType" : 5126,
            "count" : 811,
            "type" : "VEC2"
        },
        {
            "bufferView" : 12,
            "componentType" : 5123,
            "count" : 1602,
            "type" : "SCALAR"
        },
        {
            "bufferView" : 13,
            "componentType" : 5126,
            "count" : 332,
            "max" : [
                1,
                0.5,
                0.5934538245201111
            ],
            "min" : [
                -1,
                0.2191592901945114,
                -1
            ],
            "type" : "VEC3"
        },
        {
            "bufferView" : 14,
            "componentType" : 5126,
            "count" : 332,
            "type" : "VEC3"
        },
        {
            "bufferView" : 15,
            "componentType" : 5126,
            "count" : 332,
            "type" : "VEC2"
        },
        {
            "bufferView" : 16,
            "componentType" : 5123,
            "count" : 534,
            "type" : "SCALAR"
        },
        {
            "bufferView" : 17,
            "componentType" : 5126,
            "count" : 328,
            "max" : [
                1,
                0.2191592901945114,
                0.5934538245201111
            ],
            "min" : [
                -1,
                0.08052577078342438,
                -1
            ],
            "type" : "VEC3"
        },
        {
            "bufferView" : 18,
            "componentType" : 5126,
            "count" : 328,
            "type" : "VEC3"
        },
        {
            "bufferView" : 19,
            "componentType" : 5126,
            "count" : 328,
            "type" : "VEC2"
        },
        {
            "bufferView" : 20,
            "componentType" : 5123,
            "count" : 534,
            "type" : "SCALAR"
        },
        {
            "bufferView" : 21,
            "componentType" : 5126,
            "count" : 324,
            "max" : [
                1,
                0.08052577078342438,
                0.5934538245201111
            ],
            "min" : [
                -1,
                0,
                -1
            ],
            "type" : "VEC3"
        },
        {
            "bufferView" : 22,
            "componentType" : 5126,
            "count" : 324,
            "type" : "VEC3"
        },
        {
            "bufferView" : 23,
            "componentType" : 5126,
            "count" : 324,
            "type" : "VEC2"
        },
        {
            "bufferView" : 24,
            "componentType" : 5123,
            "count" : 534,
            "type" : "SCALAR"
        },
        {
            "bufferView" : 25,
            "componentType" : 5126,
            "count" : 832,
            "max" : [
                1,
                0.9631720185279846,
                1
            ],
            "min" : [
                -1,
                0.5,
                -1
            ],
            "type" : "VEC3"
        },
        {
            "bufferView" : 26,
            "componentType" : 5126,
            "count" : 832,
            "type" : "VEC3"
        },
        {
            "bufferView" : 27,
            "componentType" : 5126,
            "count" : 832,
            "type" : "VEC2"
        },
        {
            "bufferView" : 28,
            "componentType" : 5123,
            "count" : 1302,
            "type" : "SCALAR"
        },
        {
            "bufferView" : 29,
            "componentType" : 5126,
            "count" : 266,
            "max" : [
                0.39306941628456116,
                0.970181941986084,
                0.5580055117607117
            ],
            "min" : [
                -0.37084639072418213,
                0.9473222494125366,
                -0.5923128724098206
            ],
            "type" : "VEC3"
        },
        {
            "bufferView" : 30,
            "componentType" : 5126,
            "count" : 266,
            "type" : "VEC3"
        },
        {
            "bufferView" : 31,
            "componentType" : 5126,
            "count" : 266,
            "type" : "VEC2"
        },
        {
            "bufferView" : 32,
            "componentType" : 5123,
            "count" : 564,
            "type" : "SCALAR"
        }
    ],
    "bufferViews" : [
        {
            "buffer" : 0,
            "byteLength" : 71784,
            "byteOffset" : 0
        },
        {
            "buffer" : 0,
            "byteLength" : 71784,
            "byteOffset" : 71784
        },
        {
            "buffer" : 0,
            "byteLength" : 47856,
            "byteOffset" : 143568
        },
        {
            "buffer" : 0,
            "byteLength" : 19620,
            "byteOffset" : 191424
        },
        {
            "buffer" : 0,
            "byteLength" : 10620,
            "byteOffset" : 211044
        },
        {
            "buffer" : 0,
            "byteLength" : 10620,
            "byteOffset" : 221664
        },
        {
            "buffer" : 0,
            "byteLength" : 7080,
            "byteOffset" : 232284
        },
        {
            "buffer" : 0,
            "byteLength" : 3276,
            "byteOffset" : 239364
        },
        {
            "buffer" : 0,
            "byteLength" : 52316,
            "byteOffset" : 242640
        },
        {
            "buffer" : 0,
            "byteLength" : 9732,
            "byteOffset" : 294956
        },
        {
            "buffer" : 0,
            "byteLength" : 9732,
            "byteOffset" : 304688
        },
        {
            "buffer" : 0,
            "byteLength" : 6488,
            "byteOffset" : 314420
        },
        {
            "buffer" : 0,
            "byteLength" : 3204,
            "byteOffset" : 320908
        },
        {
            "buffer" : 0,
            "byteLength" : 3984,
            "byteOffset" : 324112
        },
        {
            "buffer" : 0,
            "byteLength" : 3984,
            "byteOffset" : 328096
        },
        {
            "buffer" : 0,
            "byteLength" : 2656,
            "byteOffset" : 332080
        },
        {
            "buffer" : 0,
            "byteLength" : 1068,
            "byteOffset" : 334736
        },
        {
            "buffer" : 0,
            "byteLength" : 3936,
            "byteOffset" : 335804
        },
        {
            "buffer" : 0,
            "byteLength" : 3936,
            "byteOffset" : 339740
        },
        {
            "buffer" : 0,
            "byteLength" : 2624,
            "byteOffset" : 343676
        },
        {
            "buffer" : 0,
            "byteLength" : 1068,
            "byteOffset" : 346300
        },
        {
            "buffer" : 0,
            "byteLength" : 3888,
            "byteOffset" : 347368
        },
        {
            "buffer" : 0,
            "byteLength" : 3888,
            "byteOffset" : 351256
        },
        {
            "buffer" : 0,
            "byteLength" : 2592,
            "byteOffset" : 355144
        },
        {
            "buffer" : 0,
            "byteLength" : 1068,
            "byteOffset" : 357736
        },
        {
            "buffer" : 0,
            "byteLength" : 9984,
            "byteOffset" : 358804
        },
        {
            "buffer" : 0,
            "byteLength" : 9984,
            "byteOffset" : 368788
        },
        {
            "buffer" : 0,
            "byteLength" : 6656,
            "byteOffset" : 378772
        },
        {
            "buffer" : 0,
            "byteLength" : 2604,
            "byteOffset" : 385428
        },
        {
            "buffer" : 0,
            "byteLength" : 3192,
            "byteOffset" : 388032
        },
        {
            "buffer" : 0,
            "byteLength" : 3192,
            "byteOffset" : 391224
        },
        {
            "buffer" : 0,
            "byteLength" : 2128,
            "byteOffset" : 394416
        },
        {
            "buffer" : 0,
            "byteLength" : 1128,
            "byteOffset" : 396544
        }
    ],
    "samplers" : [
        {
            "magFilter" : 9729,
            "minFilter" : 9987,
            "wrapS" : 33071,
            "wrapT" : 33071
        }
    ],
    "buffers" : [
        {
            "byteLength" : 397672,
            "uri" : "data:application/octet-stream;base64,"
        }
    ]
}
